<svg version="1.1" id="Layer_1" xmlns="http://www.w3.org/2000/svg" xmlns:xlink="http://www.w3.org/1999/xlink" x="0px" y="0px"
	 width="100%" viewBox="0 0 496 496" enable-background="new 0 0 496 496" xml:space="preserve">
<path fill="#000000" opacity="1.000000" stroke="none" 
	d="
M350.989319,210.005692 
	C351.226410,210.985321 351.470001,211.965836 350.390381,213.026581 
	C347.030182,212.151810 345.445831,208.543213 342.299286,207.140015 
	C341.874908,209.056061 344.452606,210.906418 342.225677,212.790482 
	C339.836914,213.110703 339.646393,211.037842 339.283325,209.610870 
	C337.582489,202.927032 332.979218,198.875732 327.243835,195.722916 
	C321.444031,192.534698 315.924438,188.793472 308.978516,186.395981 
	C310.070496,191.225632 313.602631,194.282440 314.736633,198.299805 
	C317.753632,208.987823 324.074127,215.726578 335.415131,217.313004 
	C337.248688,217.569489 339.397888,218.329361 339.505524,221.512100 
	C334.127106,221.120941 329.499603,218.118988 324.124359,217.516800 
	C322.244232,221.529053 325.918945,224.835098 325.229095,228.936020 
	C321.832489,226.915604 320.865143,223.619339 320.172424,220.417404 
	C319.393311,216.816055 317.428864,215.061661 313.895447,214.406067 
	C304.782471,212.715149 295.704651,210.829315 285.796875,210.344971 
	C286.816589,218.199097 290.843750,225.117462 290.555664,233.869019 
	C286.776703,231.266388 287.145386,228.387756 286.427185,225.996185 
	C280.572845,206.501709 284.978973,210.509979 265.472565,210.173889 
	C260.820160,210.093735 256.177277,210.541824 251.532166,211.101440 
	C247.967636,211.530914 247.037842,212.930984 247.603577,216.325714 
	C248.886459,224.023651 249.912979,231.764511 251.005661,239.493301 
	C251.066452,239.923309 250.782471,240.402039 250.659592,240.855789 
	C248.040680,241.745316 247.829468,239.979965 247.581833,238.275192 
	C246.602875,231.535873 245.574783,224.803070 244.671005,218.053650 
	C243.914047,212.400726 243.335938,211.993530 237.676682,213.035355 
	C229.963364,214.455276 222.436829,216.375275 215.213089,219.563828 
	C211.530518,221.189331 209.795532,223.340454 209.991409,227.489655 
	C210.272202,233.437729 210.062988,239.408920 210.062988,245.534241 
	C206.699127,244.084702 206.696976,244.084702 206.685059,235.945099 
	C206.679520,232.159073 206.684128,228.373047 206.684128,224.011719 
	C197.293396,227.930389 189.220535,232.857666 180.937653,237.362549 
	C179.019470,238.405807 177.199326,239.503845 174.894730,239.421707 
	C173.337036,239.366180 171.678360,239.834610 170.886185,241.115662 
	C167.850510,246.024765 162.847519,248.520432 158.312668,251.513962 
	C154.897339,253.768463 153.528580,256.285522 154.955948,260.267609 
	C156.365662,264.200562 159.268616,262.157867 161.686356,262.193298 
	C162.314911,262.202515 162.940613,262.406097 164.474319,262.685760 
	C161.544434,266.731079 152.994461,265.803619 155.963486,274.076416 
	C152.706741,270.607971 151.901840,264.983948 145.791428,267.420868 
	C146.148956,263.743835 148.775391,264.327881 150.259918,263.359314 
	C152.234695,262.070862 151.789047,260.310883 151.027908,258.558319 
	C148.893890,257.462921 147.760681,260.093536 145.897339,259.764984 
	C143.887939,255.318085 144.776871,249.690826 148.412430,247.101196 
	C150.775253,245.418106 150.679962,243.272934 150.821457,240.961227 
	C150.942642,238.980759 151.163818,237.006378 151.388367,234.497406 
	C149.738998,235.988098 149.320160,238.266068 146.526672,238.848679 
	C145.141983,233.911789 149.135605,231.183426 151.102280,227.904480 
	C153.518295,223.876419 153.501877,219.293640 154.799408,215.027542 
	C156.047592,210.923676 157.264801,206.810379 158.084229,202.525055 
	C151.581512,210.699890 145.769913,219.189514 144.354874,229.915207 
	C144.144653,231.508698 144.464035,233.513260 142.375854,234.074524 
	C140.561188,234.562271 139.049026,234.020615 138.716248,231.824951 
	C138.650543,231.391464 138.730118,230.983353 137.932617,231.152298 
	C131.311523,232.555054 132.626099,228.415527 133.592972,224.735779 
	C146.064224,177.272903 175.676270,146.361389 223.370590,134.315750 
	C276.415039,120.918884 332.353455,146.971222 357.394073,195.551300 
	C360.878601,202.311447 360.867157,202.296326 354.969299,206.739166 
	C353.783752,207.632217 352.721252,208.688599 351.205566,209.475922 
	C346.826416,196.193954 338.635742,186.371582 327.071686,178.461914 
	C327.204407,179.461868 327.149139,179.966553 327.343872,180.341400 
	C327.956055,181.519852 328.709167,182.624939 329.324585,183.801910 
	C334.693817,194.070358 341.815338,202.885269 350.989319,210.005692 
M243.366089,187.297989 
	C244.115189,192.380249 244.958710,197.450912 245.583755,202.548386 
	C246.091049,206.685532 248.217880,208.403625 252.302750,207.616165 
	C259.558960,206.217361 266.898956,206.841095 274.205658,206.625519 
	C275.929718,206.574661 277.896362,207.305145 279.633118,205.240555 
	C278.012268,199.513565 275.305573,194.022583 272.593231,188.549194 
	C266.427307,176.106689 266.397400,176.121521 252.491989,176.306778 
	C242.127243,176.444855 242.026703,176.555649 243.366089,187.297989 
M225.028854,212.371674 
	C229.372269,211.241898 233.666962,209.510208 238.072937,209.153580 
	C242.377975,208.805145 243.092911,206.884201 242.582108,203.375565 
	C241.577072,196.471832 240.507614,189.576111 239.621033,182.657059 
	C239.163239,179.084290 237.416092,177.597961 233.900696,178.459320 
	C229.215256,179.607391 224.572311,180.935898 219.869354,182.002930 
	C216.657776,182.731583 215.042511,184.718445 214.527283,187.793259 
	C213.401169,194.513657 212.232040,201.228302 211.234955,207.968124 
	C210.843475,210.614334 209.393967,213.339035 211.184647,216.302017 
	C215.656250,215.032669 219.951263,213.813461 225.028854,212.371674 
M177.228043,230.212677 
	C183.203812,229.219513 187.798264,224.860168 193.484497,223.353134 
	C203.175674,220.784637 209.379410,215.876068 207.975616,204.802460 
	C207.917358,204.342926 208.240555,203.846252 208.321259,203.356201 
	C209.277451,197.549393 210.221298,191.740570 211.312073,185.051056 
	C202.076141,188.803925 193.967621,192.795471 186.474747,198.071503 
	C184.165756,199.697342 182.794052,201.676895 181.953018,204.353683 
	C179.357056,212.615768 177.455139,220.995178 177.228043,230.212677 
M277.515442,191.071274 
	C279.257996,195.213745 281.083984,199.323883 282.707703,203.512421 
	C283.510925,205.584457 284.707520,206.928833 286.965881,207.137360 
	C296.670898,208.033432 306.335205,209.228683 316.830933,211.800308 
	C312.992371,201.092850 308.247955,192.085876 301.785461,184.013672 
	C301.041077,183.083878 299.517792,182.682877 298.279572,182.259033 
	C291.653992,179.991119 284.808624,178.588333 277.913177,177.500259 
	C275.917053,177.185272 273.652435,176.565735 271.336060,178.465027 
	C273.296631,182.425842 275.262756,186.397888 277.515442,191.071274 
M312.668335,168.771439 
	C303.819336,163.735031 294.462341,160.144547 284.380493,158.497879 
	C290.793549,165.260880 297.329041,171.659073 302.782867,179.052979 
	C303.350128,179.822006 304.217560,180.529175 305.099030,180.882217 
	C314.026306,184.457703 322.518066,188.912064 332.039612,194.642578 
	C326.427429,184.406052 320.189484,176.552338 312.668335,168.771439 
M207.822906,163.335587 
	C194.939377,168.947845 192.398590,181.767822 186.855835,192.573044 
	C194.704712,188.751801 202.113922,184.692322 210.117752,181.881439 
	C211.622787,181.352875 212.790894,180.428726 213.279602,178.931381 
	C215.314041,172.698029 217.273010,166.440033 219.560684,159.244217 
	C215.306183,160.718002 211.916977,161.892044 207.822906,163.335587 
M162.415680,202.880753 
	C160.869934,207.397110 158.957733,211.828964 158.891876,216.786240 
	C165.429321,210.780609 171.457001,204.596115 178.440872,199.464539 
	C179.349091,198.797180 180.321350,197.896423 180.708130,196.890137 
	C184.175385,187.869415 188.696106,179.368256 193.500687,170.975464 
	C180.745758,179.021255 167.275375,186.237732 162.415680,202.880753 
M288.513702,167.986862 
	C285.969696,165.604614 283.319122,163.325211 280.901886,160.820602 
	C273.998016,153.667282 265.203308,154.570023 255.585373,154.327957 
	C259.797577,160.602295 263.450653,166.064697 267.131439,171.508331 
	C267.842560,172.559998 269.023163,172.827026 270.184967,172.966125 
	C278.965820,174.017578 287.678131,175.494003 296.910248,177.820557 
	C294.504547,173.751007 291.610138,171.244659 288.513702,167.986862 
M177.141663,208.465698 
	C177.395966,207.391220 178.130096,206.385223 177.499359,204.789108 
	C169.715530,211.327469 162.261932,218.041351 156.847412,226.415741 
	C153.869431,231.021683 153.818527,236.846832 154.797623,243.115814 
	C160.139175,240.330933 164.470657,237.883835 168.968491,235.794861 
	C171.908936,234.429184 173.362137,232.228500 173.508499,229.234039 
	C173.843124,222.387848 175.615372,215.806732 177.141663,208.465698 
M260.639954,167.811615 
	C257.948181,164.022339 255.410950,160.110153 252.521698,156.477982 
	C249.567520,152.764191 245.563156,154.372849 241.891937,155.055176 
	C239.654114,155.471085 239.114883,157.264954 239.405289,159.268509 
	C239.975220,163.200562 240.694901,167.111008 241.254990,171.044296 
	C241.512634,172.853561 242.462509,173.955826 244.208832,173.592270 
	C250.056595,172.374939 256.046509,172.987747 261.718689,172.494690 
	C262.681305,170.564911 261.529938,169.573959 260.639954,167.811615 
M220.989899,177.973068 
	C223.085632,177.439087 225.181229,176.904495 227.277130,176.371185 
	C238.179504,173.597076 238.278610,173.581726 236.536911,162.420547 
	C236.197449,160.245193 236.905365,156.462311 233.461578,156.525589 
	C229.738342,156.594040 224.986755,155.884506 223.066010,160.585770 
	C221.055511,165.506699 219.493103,170.613251 217.803772,175.661728 
	C217.029266,177.976303 217.948700,178.836319 220.989899,177.973068 
M264.908264,143.590683 
	C264.710938,143.818710 264.488312,144.031448 264.334473,144.285782 
	C264.297119,144.347519 264.462494,144.570953 264.574585,144.678467 
	C274.320526,154.026794 287.547516,154.320572 299.316315,158.409363 
	C290.869659,150.070953 282.852325,146.642151 264.908264,143.590683 
M206.155640,155.014847 
	C206.639374,154.081696 207.970901,153.588501 207.654617,152.098053 
	C194.339401,155.729156 185.465073,164.787033 178.171158,175.863449 
	C187.114624,168.732208 199.276550,166.041367 206.155640,155.014847 
M315.876678,166.649307 
	C320.440918,169.544861 325.005127,172.440414 329.569366,175.335968 
	C323.511414,164.932190 314.694031,158.188217 303.722412,154.251282 
	C303.430481,154.590454 303.138580,154.929626 302.846649,155.268799 
	C306.996307,158.923538 311.145935,162.578278 315.876678,166.649307 
M166.961227,185.464355 
	C169.974548,180.756821 172.987854,176.049301 176.775787,170.131622 
	C164.642365,178.981384 156.995544,189.380356 152.949371,202.470871 
	C157.506439,197.012802 162.063492,191.554718 166.961227,185.464355 
M211.284515,154.672058 
	C210.198715,156.024323 208.500198,156.968292 208.284821,159.412018 
	C214.815414,156.583298 223.789536,157.547562 224.160278,146.884018 
	C218.463303,146.903336 215.185287,150.668533 211.284515,154.672058 
M248.204620,143.809616 
	C248.667130,147.839508 250.788605,150.437790 254.918747,150.705872 
	C258.753052,150.954758 262.616211,150.758972 267.283691,150.758972 
	C260.866547,147.637680 256.245850,142.122070 248.204620,143.809616 
M245.993759,149.102020 
	C245.095642,147.907104 244.222412,146.692398 243.292999,145.522354 
	C242.156326,144.091370 240.754913,143.426071 238.909134,144.126404 
	C237.553238,144.640808 237.191605,145.719666 237.507095,146.937973 
	C237.951202,148.652969 237.972290,150.976166 240.110901,151.372696 
	C242.219498,151.763657 244.811020,152.583145 245.993759,149.102020 
M233.063873,145.587936 
	C227.334579,145.206985 228.345978,150.034332 226.397400,153.184235 
	C234.607788,153.224625 235.697571,152.012451 233.063873,145.587936 
M156.776199,182.245361 
	C155.357086,184.261673 153.937988,186.278000 152.518875,188.294312 
	C156.493683,184.871155 159.725037,180.988251 161.648682,176.100601 
	C160.162949,177.961746 158.677216,179.822876 156.776199,182.245361 
M195.430420,152.272598 
	C196.144089,151.538834 197.423004,151.296600 197.703064,149.379669 
	C193.556259,152.288971 189.863754,154.879547 186.171249,157.470108 
	C186.388748,157.765121 186.606247,158.060135 186.823746,158.355133 
	C189.519043,156.453903 192.214340,154.552658 195.430420,152.272598 
M346.660156,189.057800 
	C345.877777,188.073090 345.095428,187.088379 344.313080,186.103668 
	C344.058624,186.295227 343.804169,186.486786 343.549713,186.678329 
	C345.874878,190.040634 348.200043,193.402939 350.525208,196.765228 
	C350.831848,196.547623 351.138458,196.330002 351.445068,196.112381 
	C349.982788,193.936752 348.520538,191.761139 346.660156,189.057800 
z"/>
<path fill="#000000" opacity="1.000000" stroke="none" 
	d="
M225.109879,324.668793 
	C226.854324,324.748169 228.183807,324.828461 229.513977,324.842010 
	C229.815140,324.845093 230.118652,324.616302 230.662857,324.396637 
	C230.771698,321.598785 228.598389,319.705719 227.587219,317.365295 
	C225.011505,311.403687 222.114304,305.572479 219.756485,299.528839 
	C218.554596,296.448059 216.735962,295.027405 213.577820,294.744263 
	C209.439590,294.373169 205.322189,293.775635 201.188354,293.347595 
	C199.375336,293.159882 197.560638,293.104309 195.782516,291.320190 
	C202.588028,287.967896 209.078979,292.823486 215.558609,291.317413 
	C216.911575,287.353363 211.937302,283.612610 215.257767,279.428406 
	C218.099045,281.866486 217.938919,285.303772 219.030807,288.109222 
	C220.029312,290.674683 221.369720,291.922699 224.093018,291.930145 
	C232.704941,291.953674 241.288391,292.564301 249.912018,291.124054 
	C254.194641,290.408783 255.086899,288.943420 254.342850,284.950165 
	C252.943390,277.439484 251.917496,269.855957 250.884247,262.282501 
	C250.608704,260.262756 250.097092,258.036743 252.305969,255.360916 
	C254.629883,263.108459 255.874252,270.301453 256.236847,277.564667 
	C256.811584,289.076965 259.164734,290.869385 270.685150,289.057373 
	C276.380646,288.161591 280.508972,284.252655 285.785614,282.697083 
	C292.056946,280.848328 295.213531,283.567444 294.661316,289.998688 
	C293.919952,298.632904 292.287109,307.104980 290.731903,315.641235 
	C292.370514,316.847351 293.648712,315.601105 294.865234,315.024750 
	C298.926636,313.100586 302.977997,311.134613 306.907227,308.957336 
	C311.243805,306.554321 316.116516,304.710876 318.958832,300.356354 
	C321.407043,296.605591 324.638092,279.921814 324.205841,274.762054 
	C316.364624,276.147888 309.649811,281.074158 301.637177,281.963196 
	C299.864990,278.506836 301.327820,276.555664 304.315887,275.180847 
	C309.612000,272.744080 314.913666,270.318573 320.186371,267.831879 
	C325.651703,265.254333 328.521149,267.170776 328.348816,273.453857 
	C328.174347,279.815399 326.486725,285.938354 325.207550,292.122498 
	C324.978455,293.230042 324.703308,294.328033 324.415070,295.579681 
	C334.362671,292.404358 347.033722,275.151825 346.828094,265.287842 
	C344.444794,264.505341 342.635712,267.273163 340.252808,266.417664 
	C336.573853,259.562775 336.415070,258.474304 342.648529,254.824844 
	C347.962067,251.713943 347.751709,246.945435 348.390442,241.850845 
	C350.405731,245.603897 352.886139,248.727966 354.925964,252.140854 
	C355.695068,253.427689 356.404083,254.759705 357.274567,255.975113 
	C361.226746,261.493347 363.441498,261.700989 368.763763,257.161346 
	C369.231812,256.762146 369.783081,256.460449 370.442200,256.014343 
	C371.475525,298.890167 335.832520,362.513855 263.288544,370.409027 
	C196.758057,377.649719 142.322128,327.470245 134.205933,275.968658 
	C138.278000,281.508942 143.456436,284.747131 146.241943,291.587006 
	C146.241943,289.328278 146.241943,288.327240 146.241943,287.225250 
	C149.157135,286.802856 151.266190,287.882172 153.220383,289.572784 
	C154.958801,291.076721 156.354507,293.029633 158.859634,293.985535 
	C159.964523,291.838654 157.352280,289.982666 158.343658,287.982758 
	C160.888672,286.733521 161.107239,288.879181 161.814987,290.241119 
	C163.861465,294.179138 164.328369,299.044067 168.237610,301.885956 
	C175.767380,307.359863 183.807098,311.930756 193.460754,315.820801 
	C189.617401,307.616302 184.941574,300.906769 182.678925,292.864075 
	C185.863541,291.910431 186.439865,294.058838 187.225769,295.756897 
	C190.379456,302.570648 193.925659,309.155884 198.085876,315.420349 
	C199.641861,317.763367 201.510178,319.186188 204.278061,320.008423 
	C210.993774,322.003479 217.787308,323.549103 225.109879,324.668793 
M256.791107,303.437683 
	C256.092072,294.504456 255.296005,293.442322 248.904007,294.560364 
	C243.259674,295.547607 237.610611,295.160339 231.962341,295.381622 
	C228.893524,295.501892 225.702148,294.673004 222.236206,296.342072 
	C225.390579,306.398895 230.114807,315.476562 235.380905,324.303894 
	C235.907654,325.186829 236.876022,325.667084 237.932938,325.659668 
	C244.245544,325.615479 250.574661,326.250885 256.855988,324.956573 
	C259.195312,324.474579 259.868683,323.186188 259.533112,321.045319 
	C258.658691,315.466400 257.780762,309.888062 256.791107,303.437683 
M289.661896,286.118713 
	C281.328003,288.280396 273.128113,291.134644 264.566040,292.162354 
	C259.800018,292.734406 258.766846,294.951630 259.433624,299.134338 
	C260.501556,305.833282 261.410187,312.557770 262.371338,319.273590 
	C262.585724,320.771698 262.790253,322.330811 264.122711,323.244385 
	C266.803711,325.082458 285.309753,319.675629 286.614655,316.703033 
	C287.012024,315.797760 287.275818,314.814972 287.467529,313.841400 
	C288.523010,308.480560 290.122040,303.138153 290.367798,297.736328 
	C290.542847,293.890137 293.235504,289.868988 289.661896,286.118713 
M207.129349,332.352203 
	C199.280823,318.630127 183.540512,317.274536 171.998993,309.339386 
	C180.278366,328.747803 199.510712,342.740509 218.219391,343.764404 
	C214.769562,340.233551 211.181198,336.560883 207.129349,332.352203 
M310.616913,330.090820 
	C330.780640,318.972412 343.319855,301.286194 343.642975,283.297516 
	C338.103485,289.725342 332.185699,295.540436 325.565704,300.596161 
	C318.476227,306.010406 318.073853,315.210815 313.351501,321.966492 
	C312.025665,323.863220 310.998169,325.977173 309.933868,328.043030 
	C309.583618,328.722931 308.240356,329.689148 310.616913,330.090820 
M221.373703,327.340210 
	C216.240463,327.088837 211.410477,324.606750 205.881683,324.804962 
	C215.355652,341.092987 233.055267,350.731323 245.884857,346.698853 
	C244.240097,344.342499 242.292450,342.211578 241.098221,339.719635 
	C237.266724,331.724609 231.551041,326.887604 221.373703,327.340210 
M311.735901,310.642761 
	C305.830780,314.028503 299.778473,317.110107 293.430023,319.592346 
	C291.587219,320.312866 289.496826,320.868347 288.788544,323.011139 
	C286.724915,329.254517 284.767883,335.533081 282.731140,341.916718 
	C297.729431,340.502075 312.186646,325.744537 314.962769,309.308105 
	C313.842926,309.022552 313.149292,309.888428 311.735901,310.642761 
M278.940094,341.450714 
	C281.121887,335.601135 283.538269,329.821686 284.752838,322.918213 
	C278.130402,324.495239 271.542480,324.911163 266.167511,327.680939 
	C261.183594,330.249176 265.762695,335.758789 265.498444,339.947388 
	C265.371246,341.963257 265.299866,345.367645 268.302673,345.525726 
	C271.967743,345.718597 276.027222,345.781189 278.940094,341.450714 
M259.766266,328.793671 
	C253.110168,329.061493 246.454056,329.329315 238.823746,329.636322 
	C242.525131,336.229370 245.972229,341.749084 250.436020,346.320862 
	C253.393845,349.350250 257.809967,347.889099 261.244049,346.373749 
	C263.964569,345.173279 262.459991,342.308472 262.125031,340.125092 
	C261.573090,336.527588 260.920807,332.945465 259.766266,328.793671 
M235.296234,358.390564 
	C236.345627,358.362518 237.537857,359.183899 238.243637,358.183441 
	C228.277695,347.455505 213.862473,348.076965 201.615234,343.147125 
	C211.421463,350.846588 221.531738,357.817474 235.296234,358.390564 
M356.729065,276.209808 
	C357.348755,272.118408 357.968414,268.027008 358.609650,263.793274 
	C347.594482,273.457489 347.946106,287.392761 343.751587,299.544769 
	C349.258789,292.700043 354.172882,285.562225 356.729065,276.209808 
M165.701508,306.774261 
	C162.825577,300.567139 156.338684,298.075806 151.949478,293.384705 
	C155.571289,306.351532 163.279602,316.080536 175.205521,322.567841 
	C172.139084,317.522186 169.072647,312.476532 165.701508,306.774261 
M319.598267,332.118774 
	C321.623138,329.531799 323.648041,326.944824 325.672913,324.357880 
	C320.177246,328.414886 314.740173,332.340942 308.706146,335.152435 
	C302.159271,338.202881 298.849609,344.134247 294.137390,349.279785 
	C296.382446,349.714813 297.779053,348.652557 299.309113,348.141113 
	C307.749817,345.319733 313.379639,338.906403 319.598267,332.118774 
M171.961823,325.915955 
	C171.093826,325.307709 170.628555,324.076477 169.027359,324.128662 
	C177.502090,336.222168 188.172211,344.999573 202.262619,349.484344 
	C193.312134,340.323883 182.903595,333.303131 171.961823,325.915955 
M338.623535,312.114471 
	C333.908966,317.533325 330.495361,323.771606 326.897919,329.894073 
	C336.685730,324.300659 347.482117,309.072357 349.823822,297.953278 
	C346.716797,303.290497 342.570770,307.164825 338.623535,312.114471 
M238.846573,353.790680 
	C243.791931,356.532959 248.440796,360.432861 254.923996,358.157410 
	C250.401733,350.651581 247.612823,349.724365 235.172928,351.488861 
	C236.318573,352.228638 237.284332,352.852295 238.846573,353.790680 
M287.689331,344.381409 
	C282.092773,345.587128 278.147705,348.379852 277.644165,355.059784 
	C285.954285,354.507599 289.286896,348.053741 293.377228,342.389343 
	C291.719208,342.984528 290.061157,343.579712 287.689331,344.381409 
M268.766754,356.794800 
	C274.395569,356.819763 273.709686,352.178192 275.669312,348.746490 
	C267.059631,348.972717 266.219177,349.966339 268.766754,356.794800 
M263.227356,351.373505 
	C260.591675,349.301727 258.354950,351.337341 255.830292,351.760498 
	C258.437012,356.841766 260.679749,358.743805 262.866821,357.663025 
	C265.809875,356.208679 263.669495,353.945648 263.227356,351.373505 
M340.133209,326.143066 
	C344.478149,320.575195 349.122192,315.204712 351.781921,308.530121 
	C347.136749,314.856964 342.491577,321.183807 337.846405,327.510681 
	C338.006714,327.639557 338.167023,327.768402 338.327332,327.897278 
	C338.802124,327.458466 339.276947,327.019653 340.133209,326.143066 
M358.599152,287.957245 
	C360.003387,283.627655 361.888031,279.431488 361.809265,274.668304 
	C359.937195,280.431427 358.065094,286.194519 356.192993,291.957642 
	C356.379333,292.027649 356.565674,292.097656 356.752014,292.167664 
	C357.293701,290.987244 357.835388,289.806793 358.599152,287.957245 
M184.945435,345.449188 
	C181.805588,343.240295 178.665756,341.031403 175.525909,338.822510 
	C175.321381,339.117523 175.116867,339.412537 174.912338,339.707550 
	C179.345566,342.976105 183.778778,346.244659 188.211990,349.513214 
	C188.418335,349.234558 188.624680,348.955933 188.831024,348.677277 
	C187.711075,347.742493 186.591110,346.807739 184.945435,345.449188 
M228.472153,362.345917 
	C224.282532,361.014435 220.297714,358.971191 215.807571,358.652252 
	C220.032730,361.419464 224.904938,362.330475 229.673187,363.450073 
	C230.432144,363.628235 229.762573,362.893005 229.481674,362.655029 
	C229.362122,362.553772 229.177994,362.528748 228.472153,362.345917 
z"/>
<path fill="#000000" opacity="1.000000" stroke="none" 
	d="
M96.122162,378.895020 
	C108.995346,388.517273 123.666389,390.958435 138.811935,391.664062 
	C153.372574,392.342407 167.662796,390.086639 181.890427,387.336151 
	C183.141342,387.094330 184.374969,386.229034 185.956146,387.748291 
	C179.327332,390.967499 172.318817,392.287537 165.496216,394.063721 
	C149.339615,398.269836 132.855133,400.608521 116.187454,400.886139 
	C104.345573,401.083405 92.586899,399.496796 81.445160,395.109955 
	C59.322449,386.399475 50.046215,366.616821 57.008347,343.635559 
	C62.410900,325.802307 73.057571,311.190704 85.247444,297.582397 
	C97.852531,283.510529 112.508972,271.715240 127.633713,260.489075 
	C128.545105,259.812622 129.570312,259.289520 130.864212,258.498383 
	C132.713898,265.935577 133.266541,271.813721 126.400589,277.653900 
	C111.471802,290.352356 99.115997,305.436005 90.171661,323.091400 
	C85.981598,331.362213 83.050751,340.074158 82.596634,349.284180 
	C82.012161,361.137878 86.743568,370.988068 96.122162,378.895020 
z"/>
<path fill="#000000" opacity="1.000000" stroke="none" 
	d="
M425.377167,121.434746 
	C436.406281,126.463013 444.778564,133.531097 449.100281,144.902023 
	C451.876892,152.207642 451.939087,159.495697 450.349548,166.942337 
	C447.903900,178.399384 442.125702,188.174973 435.347137,197.440048 
	C428.650421,193.887421 428.279907,191.917969 433.045074,187.302933 
	C436.159393,184.286713 436.761505,180.178253 434.339905,177.567947 
	C431.161835,174.142273 428.095856,175.787750 425.037384,177.897232 
	C423.458893,178.985947 422.781494,181.297943 420.144592,181.372467 
	C419.625000,177.643280 421.327148,174.695023 423.022461,171.683182 
	C425.136444,167.927521 429.675690,164.132446 423.248077,160.123520 
	C422.845367,159.872360 422.829895,158.903519 422.744904,158.254105 
	C420.874939,143.965424 412.039886,134.988403 399.864838,128.815826 
	C389.492096,123.557007 378.191742,121.610397 366.734650,120.264290 
	C353.405518,118.698212 340.182770,119.768784 326.946106,121.209419 
	C326.167755,121.294121 325.356293,121.074295 324.061371,120.947243 
	C327.002136,117.949013 330.576874,118.420135 333.595459,117.909561 
	C352.123230,114.775658 370.680237,112.043251 389.619812,113.590210 
	C401.811249,114.585999 413.679138,116.630333 425.377167,121.434746 
z"/>
<path fill="#000000" opacity="1.000000" stroke="none" 
	d="
M182.949677,266.280243 
	C183.218948,262.169098 183.471619,258.529907 183.679184,254.888199 
	C183.804214,252.694672 183.553574,250.855881 181.557144,249.178131 
	C178.956680,246.992767 180.205017,245.104401 183.002548,244.092484 
	C194.302216,240.005249 211.300583,247.673523 215.750488,258.842621 
	C218.889267,266.720856 216.960281,274.574097 210.318634,279.883606 
	C203.583832,285.267578 196.149979,289.217102 187.265472,289.341064 
	C182.538879,289.407013 181.652267,287.874237 182.110199,283.146210 
	C182.637100,277.706268 182.667847,272.218292 182.949677,266.280243 
M189.336334,258.837799 
	C189.393936,266.187775 188.730484,273.574799 189.636993,281.339020 
	C196.313553,279.288513 201.738541,276.924103 206.064926,272.542145 
	C210.388809,268.162689 210.734253,263.689514 207.217316,258.626038 
	C205.165924,255.672516 202.411163,253.642517 199.116699,252.212708 
	C191.204315,248.778687 190.095825,249.397568 189.336334,258.837799 
z"/>
<path fill="#000000" opacity="1.000000" stroke="none" 
	d="
M411.267151,208.937347 
	C410.515076,210.412384 409.684387,211.488235 409.853821,213.251846 
	C414.225464,212.696136 418.441223,212.071182 422.677948,211.663956 
	C424.461609,211.492508 426.621490,211.407257 426.983551,213.908463 
	C427.298798,216.086273 425.672943,217.212723 423.948761,217.979568 
	C419.429138,219.989731 414.413391,218.996887 409.737915,220.248154 
	C406.429352,221.133591 402.911926,221.271713 399.763367,222.940506 
	C400.290497,225.933578 402.613220,227.664642 403.550049,230.125107 
	C404.205627,231.846817 405.157288,233.795746 403.122894,235.013580 
	C401.359344,236.069260 399.994507,234.699310 398.975800,233.276550 
	C391.808746,223.266846 384.814026,213.143005 378.910065,202.316437 
	C378.109283,200.848022 377.248505,199.073532 378.694611,197.678116 
	C384.302612,192.266510 389.703064,186.236633 398.187103,185.711212 
	C411.115173,184.910583 417.630249,196.339066 411.267151,208.937347 
M391.437714,212.024506 
	C392.686249,213.505737 393.191803,215.674774 395.646362,216.421188 
	C400.306091,212.761581 404.524841,208.638916 406.942596,202.932541 
	C408.584656,199.056961 406.893890,196.116302 404.273193,193.542099 
	C401.705292,191.019745 398.718903,190.668381 395.606537,192.585312 
	C382.893799,200.415237 383.279053,199.015549 390.513092,210.589874 
	C390.689636,210.872345 390.881134,211.145477 391.437714,212.024506 
z"/>
<path fill="#000000" opacity="1.000000" stroke="none" 
	d="
M351.502197,238.771927 
	C348.412872,236.687912 346.304321,239.160706 344.032471,240.063354 
	C339.273743,241.954041 332.574371,242.547577 330.548828,246.763184 
	C328.462097,251.106033 333.457520,256.104858 334.945831,260.954773 
	C335.189117,261.747589 335.636963,262.483856 335.829529,263.284882 
	C336.423798,265.756714 337.141571,268.619263 333.994324,269.655334 
	C331.245178,270.560364 329.706207,268.234528 328.844391,266.018188 
	C324.745422,255.476791 320.711639,244.908676 316.818146,234.290131 
	C316.141602,232.444962 314.859253,229.793518 317.939484,228.781998 
	C320.667542,227.886124 321.575867,230.327789 322.664093,232.205841 
	C323.974335,234.466995 324.261322,237.296539 326.839966,239.517227 
	C332.589722,236.148758 338.724060,233.267639 344.940826,230.562256 
	C347.030457,229.652893 346.711121,228.067032 345.872284,226.392746 
	C344.829529,224.311417 343.755127,222.237473 342.873322,220.086975 
	C342.291077,218.667038 342.058838,217.052551 343.768768,216.143311 
	C345.332031,215.312042 346.708679,215.964081 347.751740,217.207794 
	C348.493652,218.092453 349.091309,219.105652 349.696411,220.096283 
	C355.341156,229.337723 360.327301,238.933975 365.054474,248.669037 
	C365.199860,248.968369 365.345459,249.269379 365.462585,249.580307 
	C366.396576,252.060150 367.997314,254.972748 364.716309,256.575012 
	C361.437836,258.176025 359.950867,255.028885 358.675873,252.849365 
	C356.496521,249.123901 354.691986,245.178848 352.739349,241.321289 
	C352.363892,240.579529 352.031311,239.816055 351.502197,238.771927 
z"/>
<path fill="#000000" opacity="1.000000" stroke="none" 
	d="
M143.976532,282.316315 
	C137.547409,277.824432 135.396942,271.454773 134.732025,264.478638 
	C133.977890,256.566650 136.372955,249.004684 137.897110,241.369293 
	C138.243500,239.633972 139.097504,237.569061 141.472488,237.998367 
	C143.699661,238.400940 143.387634,240.519623 143.262985,242.086014 
	C142.855209,247.210693 142.396484,252.338547 141.707672,257.431396 
	C141.154205,261.523651 141.777649,265.441345 143.299072,269.129486 
	C145.037369,273.343292 148.113724,276.244354 152.969437,276.694763 
	C158.046661,277.165741 161.505997,274.903564 163.997665,270.588196 
	C167.728027,264.127380 169.195023,256.982544 170.632019,249.811249 
	C170.729507,249.324753 170.647430,248.792633 170.793442,248.327087 
	C171.651855,245.590286 171.699112,241.555649 175.925934,242.450531 
	C179.655533,243.240143 179.424667,246.672699 178.908630,249.822342 
	C177.618500,257.696625 176.365234,265.542114 172.458267,272.705872 
	C166.281250,284.031952 156.258377,287.591125 143.976532,282.316315 
z"/>
<path fill="#000000" opacity="1.000000" stroke="none" 
	d="
M185.730103,361.912048 
	C185.488098,360.806488 185.334930,359.582397 186.595703,360.399689 
	C187.617310,361.061859 188.208008,362.451080 188.875824,363.584991 
	C190.816620,366.880310 192.510849,370.336731 194.640457,373.502106 
	C201.992966,384.430634 208.885223,386.568726 221.136490,381.775513 
	C224.692505,380.384277 228.082962,378.575043 231.600037,377.076508 
	C233.023544,376.470001 234.308060,375.020905 236.235886,375.931305 
	C235.580750,378.047577 233.581573,378.368317 232.075348,379.222168 
	C227.154465,382.011810 222.247208,384.746857 217.992523,388.599792 
	C211.986176,394.039032 210.453781,400.342712 212.985458,407.970001 
	C214.517395,412.585327 216.749619,416.841675 218.849548,421.179413 
	C219.618118,422.767029 220.750702,424.241272 220.704376,426.238647 
	C218.377319,426.469391 218.229797,424.609039 217.614166,423.462616 
	C215.252258,419.064209 212.853714,414.711182 209.908096,410.650482 
	C203.989594,402.491455 197.382233,400.391174 187.699387,403.632080 
	C183.104233,405.170135 178.725159,407.138580 174.442856,409.377228 
	C172.905273,410.181030 171.408249,411.430298 169.294891,410.770935 
	C170.119629,408.340820 172.312195,408.012390 173.968384,407.121490 
	C178.526703,404.669464 182.861649,401.908264 186.900284,398.670807 
	C193.695221,393.223846 195.524826,386.413361 192.796555,378.184906 
	C190.955780,372.633179 188.394531,367.419189 185.730103,361.912048 
z"/>
<path fill="#000000" opacity="1.000000" stroke="none" 
	d="
M318.609497,105.216156 
	C326.921875,104.471619 334.075439,100.802605 341.750519,99.049179 
	C338.847900,102.127090 334.969086,103.142883 331.463837,104.826111 
	C314.886993,112.786278 311.982513,119.687927 318.060455,137.149811 
	C319.290771,140.684494 320.582489,144.197800 321.952667,148.018768 
	C319.331787,147.813736 319.333679,146.000320 318.758057,144.805008 
	C316.953705,141.058212 315.415070,137.180237 313.538177,133.472168 
	C308.153656,122.834152 301.244202,119.705986 289.312164,122.741638 
	C284.978607,123.844147 280.843445,125.709030 276.571777,127.083122 
	C275.285065,127.497032 274.028625,128.851639 272.373840,127.639122 
	C273.214203,125.678940 275.148987,125.381256 276.753510,124.709801 
	C281.525696,122.712723 286.213348,120.557251 290.451050,117.560173 
	C298.352753,111.971756 300.554993,106.325546 298.119995,96.821785 
	C296.968933,92.329262 295.157745,88.006905 293.672546,83.598404 
	C293.163452,82.087273 292.024109,80.693604 292.676544,78.837990 
	C294.824951,78.889275 294.651642,80.853279 295.166809,81.989548 
	C297.503082,87.142807 299.585327,92.413254 302.754791,97.148315 
	C306.439728,102.653442 311.355835,105.824898 318.609497,105.216156 
z"/>
<path fill="#000000" opacity="1.000000" stroke="none" 
	d="
M296.339081,271.880188 
	C296.926208,274.022583 297.485504,275.764557 297.909210,277.538879 
	C298.257294,278.996613 297.729584,280.268097 296.346771,280.837982 
	C294.810730,281.471039 293.838959,280.422211 293.140747,279.212463 
	C292.729553,278.499969 292.434875,277.704712 292.187531,276.915436 
	C288.763336,265.988953 285.294861,255.075653 281.987793,244.113678 
	C281.142212,241.310928 280.224457,238.078720 285.520508,239.363052 
	C287.521393,239.848267 288.561157,237.602844 289.956146,236.520111 
	C300.585358,228.270065 313.220062,231.502090 316.871796,243.453262 
	C319.612274,252.422150 311.600922,263.409729 300.751434,265.344116 
	C297.088623,265.997162 293.955322,266.655762 296.339081,271.880188 
M299.948090,238.686600 
	C291.156799,241.721146 288.247955,249.810211 293.121033,257.583740 
	C293.883209,258.799591 294.844391,259.448212 296.294586,259.623871 
	C301.587189,260.264923 309.493744,254.516098 310.533783,249.194778 
	C311.513367,244.182770 307.608856,239.964981 299.948090,238.686600 
z"/>
<path fill="#000000" opacity="1.000000" stroke="none" 
	d="
M86.084122,243.539795 
	C86.306389,250.851715 83.429756,254.985245 77.062569,257.038177 
	C70.120438,259.276489 62.791862,257.478790 59.440308,252.601318 
	C58.706146,251.532913 58.099739,250.247589 57.881687,248.984924 
	C57.579514,247.235153 57.157562,245.115891 59.273476,244.139420 
	C61.057495,243.316101 62.566284,244.459732 63.607113,245.777420 
	C66.241631,249.112701 69.532974,250.521698 73.700775,249.601746 
	C75.690750,249.162506 77.648125,248.355743 78.420593,246.317902 
	C79.290749,244.022339 77.545593,242.583145 76.096230,241.239120 
	C74.514313,239.772171 72.674408,238.577179 71.136436,237.070251 
	C66.049522,232.086075 66.155945,225.484528 71.304764,220.304871 
	C76.771919,214.804977 85.804588,213.594345 90.247147,217.966751 
	C92.351974,220.038345 94.280243,222.468430 92.562454,225.709183 
	C90.286736,226.555557 89.397514,224.868530 88.179108,223.830414 
	C83.897232,220.182083 77.400620,221.738708 74.944077,226.876740 
	C73.500771,229.895523 75.238327,231.599899 77.284286,233.176590 
	C80.854561,235.927979 84.527687,238.560349 86.084122,243.539795 
z"/>
<path fill="#000000" opacity="1.000000" stroke="none" 
	d="
M272.234436,285.828369 
	C268.654449,286.567444 265.536865,286.643005 262.725342,284.650848 
	C260.886047,283.347534 259.068146,281.780060 260.033478,279.332428 
	C261.004150,276.871216 263.379486,277.709686 265.282776,278.013214 
	C270.702942,278.877594 274.720856,276.887817 276.697571,272.451782 
	C277.976685,269.581360 277.128326,267.910675 274.152283,267.392487 
	C271.369995,266.908051 268.548309,266.645081 265.740784,266.311188 
	C258.987457,265.508057 254.807449,259.812775 256.083954,253.133270 
	C257.724182,244.550522 263.574524,238.947983 270.249939,239.771606 
	C273.487000,240.170990 276.367188,241.297562 276.833801,245.060028 
	C275.615875,246.561768 274.308807,246.202560 272.984772,245.988449 
	C267.245697,245.060425 262.611542,249.164719 262.811371,254.964203 
	C262.908234,257.774933 264.539001,259.215118 267.159454,259.548798 
	C268.803802,259.758148 270.490570,259.606628 272.150818,259.723419 
	C278.991241,260.204590 282.935242,262.894226 284.435364,268.040955 
	C285.854645,272.910309 283.262054,279.495392 278.403320,282.788116 
	C276.635376,283.986267 274.559753,284.730347 272.234436,285.828369 
z"/>
<path fill="#000000" opacity="1.000000" stroke="none" 
	d="
M427.942505,179.537125 
	C429.964294,178.592407 431.552399,178.502182 432.550720,180.381699 
	C433.492249,182.154266 432.608612,183.500778 431.397430,184.815918 
	C425.121185,191.631027 425.135315,191.644012 431.065399,198.748886 
	C435.222565,203.729660 435.828064,203.687836 439.706940,198.228058 
	C441.342590,195.925751 442.948669,193.597595 444.690796,191.377365 
	C445.867279,189.878021 447.412994,188.642181 449.394745,189.872803 
	C451.385498,191.109039 451.110962,193.130219 450.056580,194.713394 
	C447.206360,198.992966 444.500244,203.464386 441.034393,207.209518 
	C437.945587,210.547226 433.550018,210.436783 430.214264,207.441986 
	C421.903076,199.980392 415.368378,190.910721 408.459381,182.199814 
	C407.884827,181.475449 407.652740,180.364594 407.547577,179.402054 
	C406.988678,174.285828 417.103333,164.540237 422.787750,164.904388 
	C422.973541,168.308533 420.283325,170.110840 418.500427,172.253586 
	C412.992126,178.873581 413.246796,180.828293 421.435669,186.572479 
	C423.435333,184.362930 425.526093,182.052750 427.942505,179.537125 
z"/>
<path fill="#000000" opacity="1.000000" stroke="none" 
	d="
M377.408478,219.476746 
	C378.887756,222.326660 377.510345,223.800476 375.496246,225.060684 
	C373.136444,226.537170 370.413513,227.495255 368.531189,229.724869 
	C368.996857,232.536301 370.741760,234.626297 372.003174,236.929611 
	C375.972870,244.177994 376.334106,244.202469 382.578217,238.467636 
	C384.413116,236.782364 386.258972,235.099075 388.209167,233.552841 
	C389.461029,232.560287 391.046692,232.276718 392.356110,233.365906 
	C393.720734,234.501053 393.637665,236.277847 392.680420,237.447983 
	C388.676575,242.342270 384.467712,247.181274 378.487885,249.663498 
	C374.952667,251.130981 371.751099,249.252396 369.837463,246.342682 
	C363.804749,237.169678 358.910797,227.344330 354.154510,217.463211 
	C353.424957,215.947586 353.463409,214.215286 354.091400,212.590973 
	C355.636871,208.593536 366.997314,202.455627 371.785187,203.208832 
	C371.782654,206.470062 368.934570,207.389114 366.987946,208.882141 
	C358.712097,215.229706 358.635925,215.628006 365.423157,224.030640 
	C369.389008,222.677124 371.713348,217.097260 377.408478,219.476746 
z"/>
<path fill="#000000" opacity="1.000000" stroke="none" 
	d="
M122.603973,231.276138 
	C126.849846,232.431152 130.709793,233.442673 134.559158,234.493011 
	C136.439926,235.006165 138.297089,235.959656 137.838226,238.167801 
	C137.335144,240.588776 135.147293,240.925003 133.030746,240.499191 
	C128.821793,239.652420 124.640030,238.670441 120.052650,237.657211 
	C117.235527,244.322266 116.027908,251.211487 113.947525,257.815491 
	C112.748184,261.622681 111.681427,265.471893 110.461510,269.272186 
	C109.756279,271.469147 108.451355,273.499023 105.849426,272.837036 
	C103.109138,272.139801 103.218124,269.542847 103.734398,267.429901 
	C105.985031,258.218658 108.534599,249.089676 112.057419,240.262207 
	C112.543571,239.044006 112.871017,237.762482 113.365776,236.217194 
	C109.696251,233.914352 105.396454,233.834503 101.614441,232.315887 
	C99.442146,231.443634 96.681252,230.795959 97.803566,227.634949 
	C98.796272,224.839005 101.249603,225.783142 103.363716,226.328262 
	C109.643806,227.947586 115.929924,229.543533 122.603973,231.276138 
z"/>
<path fill="#000000" opacity="1.000000" stroke="none" 
	d="
M227.279358,250.731812 
	C230.129700,254.613159 232.766449,258.206329 235.696014,262.198547 
	C239.012711,257.251953 242.100830,252.585693 245.257935,247.966583 
	C246.579056,246.033676 248.109756,243.649429 250.803650,245.407501 
	C253.522995,247.182129 251.865585,249.564026 250.662292,251.520752 
	C247.877930,256.048553 245.327164,260.786530 242.020767,264.909271 
	C238.203735,269.668762 239.422531,274.542877 240.369537,279.597565 
	C240.491577,280.248932 240.604141,280.905029 240.667023,281.564087 
	C240.943726,284.462982 243.194641,288.679993 238.354874,289.128082 
	C234.100632,289.521942 234.725922,285.169098 234.741730,282.359650 
	C234.778397,275.845764 233.175201,270.080353 229.107178,264.795441 
	C225.778427,260.470917 223.099884,255.629425 220.321899,250.906067 
	C219.299667,249.167953 217.563721,246.852921 220.201050,245.240707 
	C222.520309,243.822906 223.681595,246.229263 224.943100,247.675262 
	C225.706024,248.549728 226.361816,249.517685 227.279358,250.731812 
z"/>
<path fill="#000000" opacity="1.000000" stroke="none" 
	d="
M383.011230,234.005524 
	C380.958252,235.682648 379.680878,237.747467 377.263092,238.754379 
	C374.141876,236.657104 374.153961,234.618027 377.131744,232.278580 
	C379.607574,230.333466 381.949921,228.216003 384.319550,226.138565 
	C388.125061,222.802353 388.832428,222.995239 391.335480,228.442825 
	C388.502655,229.934219 385.551636,231.380997 383.011230,234.005524 
z"/>
<path fill="#000000" opacity="1.000000" stroke="none" 
	d="
M423.304993,208.146454 
	C420.690826,208.470703 418.437592,208.706558 415.890289,208.973206 
	C415.123566,205.639114 417.258148,203.325623 417.890778,200.554153 
	C422.653992,202.965454 423.923492,204.671967 423.304993,208.146454 
z"/>
<path fill="#000000" opacity="1.000000" stroke="none" 
	d="
M171.689758,283.136993 
	C174.286972,284.446472 177.815720,283.620056 178.628326,287.656586 
	C174.323090,288.135162 171.030365,286.203979 167.551682,284.777588 
	C168.336578,282.251923 169.889984,282.797516 171.689758,283.136993 
z"/>
<path fill="#000000" opacity="1.000000" stroke="none" 
	d="
M177.842667,279.165344 
	C176.903458,275.952606 175.562469,273.037567 177.914627,270.069519 
	C178.820343,273.167419 182.022736,276.171661 177.842667,279.165344 
z"/>
<path fill="#000000" opacity="1.000000" stroke="none" 
	d="
M131.235748,244.788269 
	C133.895615,243.532990 133.983490,245.026932 133.685349,246.724014 
	C133.174988,249.629044 132.570068,252.517487 131.443283,255.411331 
	C130.519379,252.019440 130.534103,248.602509 131.235748,244.788269 
z"/>
<path fill="#000000" opacity="1.000000" stroke="none" 
	d="
M197.285065,257.038391 
	C199.445786,256.755463 201.327011,256.241486 202.435211,258.640900 
	C199.454071,260.910126 196.331512,260.724670 192.965332,259.810211 
	C193.409805,257.061981 195.641907,257.916199 197.285065,257.038391 
z"/>
<path fill="#000000" opacity="1.000000" stroke="none" 
	d="
M299.605682,242.473846 
	C301.777527,241.990097 303.544708,241.687027 304.790588,244.008804 
	C301.890015,245.870621 298.742310,245.712753 295.512177,245.830170 
	C295.562592,243.025192 297.525024,242.949188 299.605682,242.473846 
z"/>
</svg>